<?xml version="1.0" standalone="no"?>
<!DOCTYPE svg PUBLIC "-//W3C//DTD SVG 20010904//EN"
 "http://www.w3.org/TR/2001/REC-SVG-20010904/DTD/svg10.dtd">
<svg version="1.0" xmlns="http://www.w3.org/2000/svg"
 width="651.000000pt" height="651.000000pt" viewBox="0 0 651.000000 651.000000"
 preserveAspectRatio="xMidYMid meet">
<metadata>
Created by potrace 1.14, written by Peter Selinger 2001-2017
</metadata>
<g transform="translate(0.000000,651.000000) scale(0.100000,-0.100000)"
fill="#000000" stroke="none">
<path d="M3050 4954 c-146 -6 -268 -13 -271 -13 -4 -1 -17 -53 -29 -116 -22
-114 -32 -135 -45 -94 -11 34 -116 133 -180 169 l-60 34 -299 8 c-165 5 -305
7 -311 4 -6 -2 -26 -56 -44 -120 l-34 -116 -27 43 c-34 54 -106 117 -173 152
l-52 27 -324 -46 c-179 -25 -328 -49 -331 -53 -4 -5 -18 -95 -32 -200 l-24
-193 51 0 50 0 23 -267 c13 -148 26 -287 29 -310 l6 -42 -131 -3 -131 -3 39
-49 39 -50 -69 -27 c-192 -74 -365 -216 -458 -376 -22 -37 -65 -107 -95 -156
-229 -364 -185 -825 114 -1175 275 -324 786 -522 1343 -522 106 0 127 3 171
24 28 12 64 39 81 58 l31 36 59 -29 59 -29 475 -31 c565 -36 608 -36 675 6 73
45 100 92 148 253 24 79 46 144 49 145 3 1 22 -22 42 -52 124 -183 292 -313
470 -361 66 -18 98 -21 195 -18 188 7 308 60 459 203 94 89 201 241 248 352
l29 68 5 -230 c5 -226 6 -231 33 -282 35 -68 99 -117 176 -134 40 -9 872 26
949 40 153 28 374 246 460 452 41 100 56 190 49 313 -5 103 -8 117 -85 333
l-40 113 24 57 c64 157 72 362 20 498 -15 39 -40 111 -56 161 -49 151 -153
286 -308 398 -52 38 -55 38 -123 34 -39 -3 -69 -1 -69 4 0 5 18 77 40 159 22
83 40 155 40 160 0 5 -71 9 -168 9 l-168 0 28 323 c15 177 27 339 27 360 l1
37 -213 0 -213 0 4 35 4 35 -78 -6 c-44 -3 -157 -9 -252 -13 -95 -5 -175 -10
-177 -12 -2 -2 -14 -61 -27 -132 -12 -70 -25 -127 -28 -127 -4 0 -28 54 -55
120 l-49 120 -30 -5 c-17 -2 -106 -7 -199 -11 -160 -6 -167 -7 -172 -28 -3
-11 -14 -70 -25 -130 -10 -59 -21 -110 -23 -112 -1 -2 -23 50 -48 116 -37 101
-47 120 -65 120 -12 0 -126 -9 -254 -20 -127 -11 -235 -18 -239 -15 -4 2 -18
36 -32 75 l-24 70 -70 -1 c-38 -1 -189 -8 -335 -15z m494 -542 c88 -251 161
-463 164 -470 3 -10 -23 -12 -124 -10 l-127 3 -17 60 -17 60 -173 3 c-95 1
-177 -1 -182 -6 -5 -5 -19 -44 -31 -88 l-23 -79 -124 -6 c-69 -3 -126 -5 -128
-3 -2 1 35 173 81 383 46 210 81 383 79 386 -3 3 -27 5 -54 5 -55 0 -54 -6
-30 110 l18 85 59 3 c92 5 396 19 435 20 l35 2 159 -458z m-1075 404 c64 -30
138 -106 168 -172 22 -49 25 -66 21 -133 -5 -88 -29 -149 -89 -228 -36 -48
-43 -53 -79 -53 -27 0 -40 -4 -40 -14 0 -7 27 -71 61 -142 33 -71 67 -143 74
-161 l14 -33 -132 0 -133 0 -53 145 c-42 114 -58 144 -70 141 -9 -3 -31 -7
-48 -11 l-33 -7 0 -119 0 -119 -120 0 -120 0 5 248 c3 136 7 302 10 370 l5
122 -24 0 -24 0 29 97 c16 53 29 97 29 99 0 1 114 0 253 -3 231 -5 256 -7 296
-27z m2641 21 c0 -30 -161 -942 -168 -948 -4 -4 -82 -9 -173 -12 l-165 -5 -94
244 c-67 175 -97 240 -102 227 -4 -10 -30 -126 -59 -258 -28 -132 -54 -243
-58 -246 -3 -4 -82 -10 -176 -14 l-170 -7 -153 453 c-84 248 -151 454 -149
456 3 3 310 31 313 29 1 -1 41 -107 89 -236 48 -129 92 -244 98 -255 9 -16 21
36 59 250 27 148 51 271 52 273 2 2 59 6 127 9 l124 5 100 -245 c55 -135 101
-244 103 -243 1 2 23 111 47 242 25 132 47 249 50 261 5 20 12 22 93 26 207 7
212 7 212 -6z m-3555 -33 c165 -109 180 -245 43 -369 -28 -25 -49 -47 -47 -48
2 -2 23 -15 47 -30 203 -131 228 -299 65 -440 -17 -15 -82 -27 -305 -57 -156
-21 -284 -37 -286 -35 -1 1 -16 162 -34 358 l-32 357 -39 0 -40 0 7 48 c4 26
9 73 13 105 3 31 9 57 12 57 3 1 125 18 271 39 146 21 270 39 275 40 6 1 28
-11 50 -25z m3985 -47 c0 -18 -11 -165 -25 -327 -14 -162 -25 -309 -25 -327
l0 -33 155 0 c117 0 155 -3 155 -12 0 -7 -13 -60 -29 -118 l-28 -105 -44 2
c-219 11 -445 26 -448 29 -3 2 10 158 28 347 17 188 31 352 31 365 0 18 -6 22
-31 22 l-31 0 7 88 c4 48 9 90 12 95 2 4 65 7 139 7 l134 0 0 -33z"/>
<path d="M3161 4442 c-22 -87 -41 -162 -41 -165 0 -4 41 -7 90 -7 50 0 90 3
90 6 0 9 -91 318 -95 322 -1 1 -21 -69 -44 -156z"/>
<path d="M2192 4508 c3 -116 3 -116 86 -103 33 5 55 16 79 40 38 38 42 71 12
109 -30 38 -71 56 -129 56 l-51 0 3 -102z"/>
<path d="M1257 4563 c-4 -3 -7 -37 -7 -75 l0 -68 41 0 c76 0 138 91 91 133
-19 17 -111 24 -125 10z"/>
<path d="M1300 4120 l0 -100 33 0 c38 0 105 30 129 56 49 56 21 115 -63 133
-102 22 -99 25 -99 -89z"/>
</g>
</svg>
